# xmcd
#
# Track frame offsets:
#	150
#	13925
#	30993
#	52125
#	75184
#	93177
#	110295
#	132286
#	148627
#	165433
#	185115
#
# Disc length: 2688 seconds
# Revision: 0
# Processed by: cddbd v1.5.2PL0 Copyright (c) Steve Scherf et al.
# Submitted via: dBpowerAMP V12.0
#
DISCID=850a7e0b
DTITLE=Various Artist - Trunk Musik 0-60
DYEAR=2010
DGENRE=Hip Hop
TTITLE0=Yelawolf - Get The Fuck Up!
TTITLE1=Yelawolf - Daddy's Lambo
TTITLE2=Yelawolf - That's What We On Now
TTITLE3=Yelawolf featuring Gucci Mane - I Just Wanna Party
TTITLE4=Yelawolf featuring Rock City - Billy Crystal
TTITLE5=Yelawolf - Pop The Trunk
TTITLE6=Yelawolf featuring Riitz The Rapper - Box Chevy
TTITLE7=Yelawolf featuring Bun B - Good To Go
TTITLE8=Yelawolf - Love Is Not Enough
TTITLE9=Yelawolf featuring Raekwon - I Wish
TTITLE10=Yelawolf - Trunk Musik
EXTD=
EXTT0=
EXTT1=
EXTT2=
EXTT3=
EXTT4=
EXTT5=
EXTT6=
EXTT7=
EXTT8=
EXTT9=
EXTT10=
PLAYORDER=
